<svg xmlns="http://www.w3.org/2000/svg" width="28" height="29" viewBox="0 0 28 29">
    <g fill="none" fill-rule="evenodd">
        <g>
            <g>
                <g>
                    <path d="M0 28L28 28 28 0 0 0z" transform="translate(-24 -5596) translate(0 5582.5) translate(24 14)"/>
                    <g fill="#FF204B">
                        <path d="M10 0c-.119 0-.237.042-.332.126l-9.5 7.556C.061 7.777 0 7.913 0 8.056v12.775c0 .552.448 1 1 1h6c.552 0 1-.448 1-1v-4c0-1.104.896-2 2-2s2 .896 2 2v4c0 .552.448 1 1 1h6c.552 0 1-.448 1-1V8.056c0-.143-.061-.279-.168-.374l-9.5-7.556C10.237.042 10.119 0 10 0" transform="translate(-24 -5596) translate(0 5582.5) translate(24 14) translate(4 3)"/>
                    </g>
                </g>
            </g>
        </g>
    </g>
</svg>
