<svg xmlns="http://www.w3.org/2000/svg" width="28" height="29" viewBox="0 0 28 29">
    <g fill="none" fill-rule="evenodd">
        <g>
            <g>
                <g>
                    <path d="M0 28L28 28 28 0 0 0z" transform="translate(-237 -5596) translate(0 5582.5) translate(237 14)"/>
                    <path fill="#868D96" d="M9.79 5c-.273 0-.554.02-.837.06-2.597.366-4.64 2.56-4.922 5.169-.2 1.855.572 3.576 2.639 5.91l6.563 6.99c.208.223.489.333.768.333s.56-.11.768-.332l6.563-6.991c2.066-2.334 2.839-4.055 2.639-5.91-.283-2.607-2.325-4.803-4.922-5.17-.283-.04-.564-.06-.838-.06-1.662 0-3.154.707-4.21 1.828C12.945 5.706 11.453 5 9.79 5m8.42 1.5c.207 0 .419.015.628.045 1.897.267 3.429 1.885 3.64 3.845.11 1.015-.09 2.293-2.241 4.722L14 21.756l-6.208-6.611c-2.181-2.462-2.38-3.741-2.27-4.755.212-1.96 1.743-3.578 3.64-3.845.21-.03.42-.045.628-.045 1.187 0 2.295.48 3.118 1.355L14 9.015l1.092-1.16c.823-.874 1.93-1.355 3.118-1.355" transform="translate(-237 -5596) translate(0 5582.5) translate(237 14)"/>
                </g>
            </g>
        </g>
    </g>
</svg>
