<svg xmlns="http://www.w3.org/2000/svg" width="28" height="29" viewBox="0 0 28 29">
    <g fill="none" fill-rule="evenodd">
        <g>
            <g>
                <g>
                    <path d="M0 28L28 28 28 0 0 0z" transform="translate(-308 -5596) translate(0 5582.5) translate(308 14)"/>
                    <g>
                        <path fill="#868D96" d="M9 0C6.238 0 4 2.239 4 5c0 2.762 2.238 5 5 5s5-2.238 5-5c0-2.761-2.238-5-5-5m0 1.5c1.93 0 3.5 1.57 3.5 3.5S10.93 8.5 9 8.5 5.5 6.93 5.5 5 7.07 1.5 9 1.5" transform="translate(-308 -5596) translate(0 5582.5) translate(308 14) translate(5 4)"/>
                        <path stroke="#868D96" stroke-linecap="round" stroke-width="1.5" d="M18 19v-2c0-2.761-2.238-5-5-5H5c-2.762 0-5 2.239-5 5v2" transform="translate(-308 -5596) translate(0 5582.5) translate(308 14) translate(5 4)"/>
                    </g>
                </g>
            </g>
        </g>
    </g>
</svg>
