<svg xmlns="http://www.w3.org/2000/svg" width="28" height="29" viewBox="0 0 28 29">
    <g fill="none" fill-rule="evenodd">
        <g>
            <g>
                <g>
                    <path d="M0 28L28 28 28 0 0 0z" transform="translate(-166 -5596) translate(0 5582.5) translate(166 14)"/>
                    <g stroke="#868D96" stroke-width="1.5">
                        <path d="M8 11.75L8.25 19 1 19.25.75 12 8 11.75zm11 0l.25 7.25-7.25.25-.25-7.25 7.25-.25zM8 .75L8.25 8 1 8.25.75 1 8 .75zm11 0L19.25 8 12 8.25 11.75 1 19 .75z" transform="translate(-166 -5596) translate(0 5582.5) translate(166 14) translate(4 4)"/>
                    </g>
                </g>
            </g>
        </g>
    </g>
</svg>
